<svg version="1.1" xmlns="http://www.w3.org/2000/svg" xmlns:xlink="http://www.w3.org/1999/xlink" width="2400" height="1600"><defs/><g transform="scale(2,2)"><g id="background-c4249cd6"><rect fill="white" stroke="none" x="0" y="0" width="1200" height="800" class="dcg-svg-background"/></g><g id="background-images-c4249cd6"/><g id="graphpaper-c4249cd6"><g id="axis-c4249cd6"><g id="yaxis-c4249cd6"><title>x2</title><path fill="none" stroke="rgb(0,0,0)" class="dcg-svg-axis-line" paint-order="fill stroke markers" d=" M 549 0 L 549 800" stroke-opacity="0.9" stroke-miterlimit="10" stroke-width="2" stroke-dasharray=""/></g><g id="xaxis-c4249cd6"><title>x1</title><path fill="none" stroke="rgb(0,0,0)" class="dcg-svg-axis-line" paint-order="fill stroke markers" d=" M 0 487 L 1200 487" stroke-opacity="0.9" stroke-miterlimit="10" stroke-width="2" stroke-dasharray=""/></g><g><g class="dcg-svg-axis-value"><text fill="none" stroke="#ffffff" font-family="Arial" font-size="17px" font-style="normal" font-weight="normal" text-decoration="normal" x="539.1324310805662" y="505.13919839018035" text-anchor="middle" stroke-miterlimit="2" stroke-width="3" stroke-dasharray="">0</text><text fill="#000000" stroke="none" font-family="Arial" font-size="17px" font-style="normal" font-weight="normal" text-decoration="normal" x="539.1324310805662" y="505.13919839018035" text-anchor="middle">0</text></g><g><path fill="none" stroke="rgb(0,0,0)" class="dcg-svg-tickmark" paint-order="fill stroke markers" d=" M 21 483 L 21 491 M 127 483 L 127 491 M 232 483 L 232 491 M 338 483 L 338 491 M 443 483 L 443 491 M 654 483 L 654 491 M 760 483 L 760 491 M 865 483 L 865 491 M 971 483 L 971 491 M 1076 483 L 1076 491 M 1182 483 L 1182 491 M 545 698 L 553 698 M 545 593 L 553 593 M 545 381 L 553 381 M 545 276 L 553 276 M 545 170 L 553 170 M 545 65 L 553 65" stroke-opacity="0.9" stroke-miterlimit="2" stroke-width="2" stroke-dasharray=""/></g><g class="dcg-svg-axis-value"><text fill="none" stroke="#ffffff" font-family="Arial" font-size="17px" font-style="normal" font-weight="normal" text-decoration="normal" x="18.443460122871898" y="505.13919839018035" text-anchor="middle" stroke-miterlimit="2" stroke-width="3" stroke-dasharray="">-5</text><text fill="#000000" stroke="none" font-family="Arial" font-size="17px" font-style="normal" font-weight="normal" text-decoration="normal" x="18.443460122871898" y="505.13919839018035" text-anchor="middle">-5</text></g><g class="dcg-svg-axis-value"><text fill="none" stroke="#ffffff" font-family="Arial" font-size="17px" font-style="normal" font-weight="normal" text-decoration="normal" x="123.9606000175358" y="505.13919839018035" text-anchor="middle" stroke-miterlimit="2" stroke-width="3" stroke-dasharray="">-4</text><text fill="#000000" stroke="none" font-family="Arial" font-size="17px" font-style="normal" font-weight="normal" text-decoration="normal" x="123.9606000175358" y="505.13919839018035" text-anchor="middle">-4</text></g><g class="dcg-svg-axis-value"><text fill="none" stroke="#ffffff" font-family="Arial" font-size="17px" font-style="normal" font-weight="normal" text-decoration="normal" x="229.47773991219964" y="505.13919839018035" text-anchor="middle" stroke-miterlimit="2" stroke-width="3" stroke-dasharray="">-3</text><text fill="#000000" stroke="none" font-family="Arial" font-size="17px" font-style="normal" font-weight="normal" text-decoration="normal" x="229.47773991219964" y="505.13919839018035" text-anchor="middle">-3</text></g><g class="dcg-svg-axis-value"><text fill="none" stroke="#ffffff" font-family="Arial" font-size="17px" font-style="normal" font-weight="normal" text-decoration="normal" x="334.99487980686354" y="505.13919839018035" text-anchor="middle" stroke-miterlimit="2" stroke-width="3" stroke-dasharray="">-2</text><text fill="#000000" stroke="none" font-family="Arial" font-size="17px" font-style="normal" font-weight="normal" text-decoration="normal" x="334.99487980686354" y="505.13919839018035" text-anchor="middle">-2</text></g><g class="dcg-svg-axis-value"><text fill="none" stroke="#ffffff" font-family="Arial" font-size="17px" font-style="normal" font-weight="normal" text-decoration="normal" x="440.5120197015274" y="505.13919839018035" text-anchor="middle" stroke-miterlimit="2" stroke-width="3" stroke-dasharray="">-1</text><text fill="#000000" stroke="none" font-family="Arial" font-size="17px" font-style="normal" font-weight="normal" text-decoration="normal" x="440.5120197015274" y="505.13919839018035" text-anchor="middle">-1</text></g><g class="dcg-svg-axis-value"><text fill="none" stroke="#ffffff" font-family="Arial" font-size="17px" font-style="normal" font-weight="normal" text-decoration="normal" x="654.3768658971051" y="505.13919839018035" text-anchor="middle" stroke-miterlimit="2" stroke-width="3" stroke-dasharray="">1</text><text fill="#000000" stroke="none" font-family="Arial" font-size="17px" font-style="normal" font-weight="normal" text-decoration="normal" x="654.3768658971051" y="505.13919839018035" text-anchor="middle">1</text></g><g class="dcg-svg-axis-value"><text fill="none" stroke="#ffffff" font-family="Arial" font-size="17px" font-style="normal" font-weight="normal" text-decoration="normal" x="759.8940057917689" y="505.13919839018035" text-anchor="middle" stroke-miterlimit="2" stroke-width="3" stroke-dasharray="">2</text><text fill="#000000" stroke="none" font-family="Arial" font-size="17px" font-style="normal" font-weight="normal" text-decoration="normal" x="759.8940057917689" y="505.13919839018035" text-anchor="middle">2</text></g><g class="dcg-svg-axis-value"><text fill="none" stroke="#ffffff" font-family="Arial" font-size="17px" font-style="normal" font-weight="normal" text-decoration="normal" x="865.4111456864327" y="505.13919839018035" text-anchor="middle" stroke-miterlimit="2" stroke-width="3" stroke-dasharray="">3</text><text fill="#000000" stroke="none" font-family="Arial" font-size="17px" font-style="normal" font-weight="normal" text-decoration="normal" x="865.4111456864327" y="505.13919839018035" text-anchor="middle">3</text></g><g class="dcg-svg-axis-value"><text fill="none" stroke="#ffffff" font-family="Arial" font-size="17px" font-style="normal" font-weight="normal" text-decoration="normal" x="970.9282855810966" y="505.13919839018035" text-anchor="middle" stroke-miterlimit="2" stroke-width="3" stroke-dasharray="">4</text><text fill="#000000" stroke="none" font-family="Arial" font-size="17px" font-style="normal" font-weight="normal" text-decoration="normal" x="970.9282855810966" y="505.13919839018035" text-anchor="middle">4</text></g><g class="dcg-svg-axis-value"><text fill="none" stroke="#ffffff" font-family="Arial" font-size="17px" font-style="normal" font-weight="normal" text-decoration="normal" x="1076.4454254757607" y="505.13919839018035" text-anchor="middle" stroke-miterlimit="2" stroke-width="3" stroke-dasharray="">5</text><text fill="#000000" stroke="none" font-family="Arial" font-size="17px" font-style="normal" font-weight="normal" text-decoration="normal" x="1076.4454254757607" y="505.13919839018035" text-anchor="middle">5</text></g><g class="dcg-svg-axis-value"><text fill="none" stroke="#ffffff" font-family="Arial" font-size="17px" font-style="normal" font-weight="normal" text-decoration="normal" x="1181.9625653704243" y="505.13919839018035" text-anchor="middle" stroke-miterlimit="2" stroke-width="3" stroke-dasharray="">6</text><text fill="#000000" stroke="none" font-family="Arial" font-size="17px" font-style="normal" font-weight="normal" text-decoration="normal" x="1181.9625653704243" y="505.13919839018035" text-anchor="middle">6</text></g><g class="dcg-svg-axis-value"><text fill="none" stroke="#ffffff" font-family="Arial" font-size="17px" font-style="normal" font-weight="normal" text-decoration="normal" x="536.3018646743162" y="702.673478179508" text-anchor="middle" stroke-miterlimit="2" stroke-width="3" stroke-dasharray="">-2</text><text fill="#000000" stroke="none" font-family="Arial" font-size="17px" font-style="normal" font-weight="normal" text-decoration="normal" x="536.3018646743162" y="702.673478179508" text-anchor="middle">-2</text></g><g class="dcg-svg-axis-value"><text fill="none" stroke="#ffffff" font-family="Arial" font-size="17px" font-style="normal" font-weight="normal" text-decoration="normal" x="536.3018646743162" y="597.1563382848442" text-anchor="middle" stroke-miterlimit="2" stroke-width="3" stroke-dasharray="">-1</text><text fill="#000000" stroke="none" font-family="Arial" font-size="17px" font-style="normal" font-weight="normal" text-decoration="normal" x="536.3018646743162" y="597.1563382848442" text-anchor="middle">-1</text></g><g class="dcg-svg-axis-value"><text fill="none" stroke="#ffffff" font-family="Arial" font-size="17px" font-style="normal" font-weight="normal" text-decoration="normal" x="539.1324310805662" y="386.1220584955165" text-anchor="middle" stroke-miterlimit="2" stroke-width="3" stroke-dasharray="">1</text><text fill="#000000" stroke="none" font-family="Arial" font-size="17px" font-style="normal" font-weight="normal" text-decoration="normal" x="539.1324310805662" y="386.1220584955165" text-anchor="middle">1</text></g><g class="dcg-svg-axis-value"><text fill="none" stroke="#ffffff" font-family="Arial" font-size="17px" font-style="normal" font-weight="normal" text-decoration="normal" x="539.1324310805662" y="280.60491860085267" text-anchor="middle" stroke-miterlimit="2" stroke-width="3" stroke-dasharray="">2</text><text fill="#000000" stroke="none" font-family="Arial" font-size="17px" font-style="normal" font-weight="normal" text-decoration="normal" x="539.1324310805662" y="280.60491860085267" text-anchor="middle">2</text></g><g class="dcg-svg-axis-value"><text fill="none" stroke="#ffffff" font-family="Arial" font-size="17px" font-style="normal" font-weight="normal" text-decoration="normal" x="539.1324310805662" y="175.0877787061888" text-anchor="middle" stroke-miterlimit="2" stroke-width="3" stroke-dasharray="">3</text><text fill="#000000" stroke="none" font-family="Arial" font-size="17px" font-style="normal" font-weight="normal" text-decoration="normal" x="539.1324310805662" y="175.0877787061888" text-anchor="middle">3</text></g><g class="dcg-svg-axis-value"><text fill="none" stroke="#ffffff" font-family="Arial" font-size="17px" font-style="normal" font-weight="normal" text-decoration="normal" x="539.1324310805662" y="69.57063881152496" text-anchor="middle" stroke-miterlimit="2" stroke-width="3" stroke-dasharray="">4</text><text fill="#000000" stroke="none" font-family="Arial" font-size="17px" font-style="normal" font-weight="normal" text-decoration="normal" x="539.1324310805662" y="69.57063881152496" text-anchor="middle">4</text></g></g><g class="dcg-svg-axis-label"><text fill="none" stroke="#ffffff" font-family="Arial" font-size="20px" font-style="normal" font-weight="normal" text-decoration="normal" x="1163.876953125" y="526.0151983901803" text-anchor="start" stroke-miterlimit="2" stroke-width="3" stroke-dasharray="">x1</text><text fill="#000000" stroke="none" font-family="Arial" font-size="20px" font-style="normal" font-weight="normal" text-decoration="normal" x="1163.876953125" y="526.0151983901803" text-anchor="start">x1</text></g><g class="dcg-svg-axis-label" transform="translate(520.2440033461912,36.123046875) rotate(-90,0,0)"><text fill="none" stroke="#ffffff" font-family="Arial" font-size="20px" font-style="normal" font-weight="normal" text-decoration="normal" x="0" y="0" text-anchor="start" stroke-miterlimit="2" stroke-width="3" stroke-dasharray="">x2</text><text fill="#000000" stroke="none" font-family="Arial" font-size="20px" font-style="normal" font-weight="normal" text-decoration="normal" x="0" y="0" text-anchor="start">x2</text></g></g></g><g id="expressions-c4249cd6"><g id="sketch-c4249cd6"><title>Expression 1</title><path fill="#2d70b3" stroke="none" paint-order="stroke fill markers" d="" fill-opacity="0.4"/><g><path fill="none" stroke="#2d70b3" class="dcg-svg-curve" paint-order="fill stroke markers" d=" M 337.32544621311354 275.48091860085265 L 337.32544621311354 275.48091860085265 L 618.7044859322172 416.17043846040445" stroke-linecap="round" stroke-linejoin="round" stroke-miterlimit="10" stroke-width="3.5" stroke-opacity="0.7" stroke-dasharray=""/></g></g><g id="sketch-c4249cd6"><title>Expression 2</title><path fill="#c74440" stroke="none" paint-order="stroke fill markers" d="" fill-opacity="0.4"/><g><path fill="none" stroke="#c74440" class="dcg-svg-curve" paint-order="fill stroke markers" d=" M 548.3597260024412 486.51519839018033 L 548.3597260024412 486.51519839018033 L 618.7044859322172 416.17043846040445" stroke-linecap="round" stroke-linejoin="round" stroke-miterlimit="10" stroke-width="3.5" stroke-opacity="0.7" stroke-dasharray=""/></g></g><g id="sketch-c4249cd6"><title>Expression 3</title><path fill="#000000" stroke="none" paint-order="stroke fill markers" d="" fill-opacity="0.4"/><g><path fill="none" stroke="#000000" class="dcg-svg-curve" paint-order="fill stroke markers" d=" M 337.32544621311354 275.48091860085265 L 337.32544621311354 275.48091860085265 L 548.3597260024412 486.51519839018033" stroke-linecap="round" stroke-linejoin="round" stroke-miterlimit="10" stroke-width="3.5" stroke-opacity="0.7" stroke-dasharray=""/></g></g><g id="sketch-c4249cd6"><title>Expression 4</title><path fill="#6042a6" stroke="none" paint-order="stroke fill markers" d="" fill-opacity="0.4"/><path fill="#6042a6" stroke="none" paint-order="stroke fill markers" d="" fill-opacity="0.4"/><g><path fill="none" stroke="#6042a6" class="dcg-svg-curve" paint-order="fill stroke markers" d=" M 1052.3510757161782 380.9980584955165 L 1052.3510757161782 380.9980584955165 L 1052.72265625 386.89658883189304 L 1053.89453125 392.8683073911231 L 1055.65234375 398.0206420038509 L 1057.99609375 402.65515115247825 L 1060.6328125 406.38377197503394 L 1063.85546875 409.6520734653857 L 1067.0781250000002 411.9193884426608 L 1070.30078125 413.3965563663157 L 1073.23046875 414.1438682021672 L 1076.1601562500002 414.36412602742973 L 1079.0898437500002 414.06786267679735 L 1082.01953125 413.24084310295547 L 1084.94921875 411.8404010541569 L 1087.87890625 409.78296346976845 L 1090.80859375 406.91251660017855 L 1093.73828125 402.9118725850179 L 1096.08203125 398.388311424693 L 1097.83984375 393.4341180812654 L 1099.01171875 388.01795239275947 L 1099.3046875 385.69661535064233 L 1099.5397752353429 380.9980584955165" stroke-linecap="round" stroke-linejoin="round" stroke-miterlimit="10" stroke-width="3.5" stroke-opacity="0.7" stroke-dasharray=""/></g><g><path fill="none" stroke="#6042a6" class="dcg-svg-curve" paint-order="fill stroke markers" d=" M 1052.3510757161782 380.9980584955165 L 1052.3510757161782 380.9980584955165 L 1052.72265625 375.09952815914 L 1053.89453125 369.1278095999099 L 1055.65234375 363.97547498718205 L 1057.99609375 359.3409658385547 L 1060.6328125 355.61234501599904 L 1063.85546875 352.34404352564735 L 1067.0781250000002 350.07672854837216 L 1070.30078125 348.5995606247173 L 1073.23046875 347.8522487888657 L 1076.1601562500002 347.63199096360324 L 1079.0898437500002 347.92825431423563 L 1082.01953125 348.7552738880775 L 1084.94921875 350.1557159368761 L 1087.87890625 352.21315352126453 L 1090.80859375 355.0836003908545 L 1093.73828125 359.0842444060151 L 1096.08203125 363.60780556634006 L 1097.83984375 368.5619989097676 L 1099.01171875 373.9781645982735 L 1099.3046875 376.2995016403907 L 1099.5397752353429 380.9980584955165" stroke-linecap="round" stroke-linejoin="round" stroke-miterlimit="10" stroke-width="3.5" stroke-opacity="0.7" stroke-dasharray=""/></g></g><g id="sketch-c4249cd6"><title>Expression 5</title><path fill="#6042a6" stroke="none" paint-order="stroke fill markers" d="" fill-opacity="0.4"/><path fill="#6042a6" stroke="none" paint-order="stroke fill markers" d="" fill-opacity="0.4"/><g><path fill="none" stroke="#6042a6" class="dcg-svg-curve" paint-order="fill stroke markers" d=" M 1023.1868555284286 380.9980584955165 L 1023.1868555284286 380.9980584955165 L 1023.7187500000002 391.56603575108585 L 1024.890625 399.806250926891 L 1026.6484375000002 407.5790170713558 L 1028.9921875 415.0233475164527 L 1031.921875 422.11724395427007 L 1035.14453125 428.3003572402039 L 1038.953125 434.19648720160825 L 1043.3476562500002 439.66409883218114 L 1048.03515625 444.3144635519169 L 1052.72265625 447.99312834956754 L 1057.41015625 450.8537740471604 L 1062.09765625 452.99397491245776 L 1066.4921875 454.4024588358388 L 1070.88671875 455.26616994518594 L 1075.2812500000002 455.60403109590436 L 1079.67578125 455.4232040940991 L 1084.0703125 454.7198722785598 L 1088.4648437500002 453.47882655107935 L 1092.859375 451.6717454571997 L 1097.2539062500002 449.2536861020572 L 1101.6484375000002 446.1566630810862 L 1106.0429687500002 442.27782010965456 L 1110.4375 437.45624652704686 L 1114.5390625 431.8704062716662 L 1118.0546875000002 425.948625892635 L 1121.27734375 419.16830576915066 L 1123.9140625 412.0617532185937 L 1125.96484375 404.7267119926785 L 1127.4296875 397.2975963237474 L 1128.30859375 390.11565808874144 L 1128.7039954230925 380.9980584955165" stroke-linecap="round" stroke-linejoin="round" stroke-miterlimit="10" stroke-width="3.5" stroke-opacity="0.7" stroke-dasharray=""/></g><g><path fill="none" stroke="#6042a6" class="dcg-svg-curve" paint-order="fill stroke markers" d=" M 1023.1868555284286 380.9980584955165 L 1023.1868555284286 380.9980584955165 L 1023.7187500000002 370.4300812399471 L 1024.890625 362.1898660641421 L 1026.6484375000002 354.4170999196772 L 1028.9921875 346.9727694745803 L 1031.921875 339.8788730367629 L 1035.14453125 333.6957597508291 L 1038.953125 327.7996297894248 L 1043.3476562500002 322.3320181588519 L 1048.03515625 317.6816534391161 L 1052.72265625 314.00298864146544 L 1057.41015625 311.14234294387256 L 1062.09765625 309.0021420785753 L 1066.4921875 307.59365815519413 L 1070.88671875 306.72994704584704 L 1075.2812500000002 306.3920858951286 L 1079.67578125 306.5729128969339 L 1084.0703125 307.27624471247316 L 1088.4648437500002 308.5172904399536 L 1092.859375 310.32437153383324 L 1097.2539062500002 312.74243088897583 L 1101.6484375000002 315.8394539099468 L 1106.0429687500002 319.7182968813785 L 1110.4375 324.5398704639861 L 1114.5390625 330.1257107193668 L 1118.0546875000002 336.047491098398 L 1121.27734375 342.8278112218823 L 1123.9140625 349.9343637724393 L 1125.96484375 357.26940499835456 L 1127.4296875 364.6985206672856 L 1128.30859375 371.8804589022915 L 1128.7039954230925 380.9980584955165" stroke-linecap="round" stroke-linejoin="round" stroke-miterlimit="10" stroke-width="3.5" stroke-opacity="0.7" stroke-dasharray=""/></g></g><g id="sketch-c4249cd6"><title>Expression 6</title><path fill="#6042a6" stroke="none" paint-order="stroke fill markers" d="" fill-opacity="0.4"/><path fill="#6042a6" stroke="none" paint-order="stroke fill markers" d="" fill-opacity="0.4"/><g><path fill="none" stroke="#6042a6" class="dcg-svg-curve" paint-order="fill stroke markers" d=" M 1001.3335403248341 380.9980623469176 L 1001.3335403248341 380.9980623469176 L 1001.7460937500001 392.07890478319626 L 1002.91796875 402.6278513721119 L 1004.6757812500001 412.22532919625377 L 1007.0195312500001 421.39990278397204 L 1009.9492187500001 430.22069766868 L 1013.46484375 438.6714546671587 L 1017.2734375 446.18289158953075 L 1021.66796875 453.3982117710205 L 1026.6484375000002 460.2033661748981 L 1031.921875 466.1903164686821 L 1037.48828125 471.41908994035333 L 1043.0546875000002 475.709544189543 L 1048.62109375 479.1847612766531 L 1054.1875 481.92898621112096 L 1059.4609375 483.90767963904267 L 1064.734375 485.3172394068425 L 1070.0078125 486.1805490338671 L 1075.2812500000002 486.51101766842976 L 1080.5546875000002 486.3136614170868 L 1085.828125 485.58549230941816 L 1091.1015625000002 484.31528761319566 L 1096.375 482.4826966486239 L 1101.6484375000002 480.0565117305315 L 1106.921875 476.9917351690065 L 1112.1953125000002 473.2247259676192 L 1117.46875 468.66500695649256 L 1122.7421875000002 463.1807387854866 L 1128.015625 456.5709071553482 L 1132.703125 449.48888927586506 L 1136.8046875 442.0403984185566 L 1140.3203125 434.34236140391386 L 1143.5429687500002 425.66360559979665 L 1146.1796875 416.6093444505476 L 1148.2304687500002 407.14403044594684 L 1149.40234375 399.4920879875834 L 1150.28125 390.066531142716 L 1150.557310626687 380.9980623469176" stroke-linecap="round" stroke-linejoin="round" stroke-miterlimit="10" stroke-width="3.5" stroke-opacity="0.7" stroke-dasharray=""/></g><g><path fill="none" stroke="#6042a6" class="dcg-svg-curve" paint-order="fill stroke markers" d=" M 1001.3335403248341 380.9980546441154 L 1001.3335403248341 380.9980546441154 L 1001.7460937500001 369.9172122078367 L 1002.91796875 359.3682656189211 L 1004.6757812500001 349.7707877947792 L 1007.0195312500001 340.59621420706094 L 1009.9492187500001 331.775419322353 L 1013.46484375 323.3246623238743 L 1017.2734375 315.8132254015023 L 1021.66796875 308.59790522001254 L 1026.6484375000002 301.79275081613486 L 1031.921875 295.80580052235086 L 1037.48828125 290.57702705067965 L 1043.0546875000002 286.28657280149 L 1048.62109375 282.81135571437983 L 1054.1875 280.0671307799121 L 1059.4609375 278.08843735199036 L 1064.734375 276.67887758419045 L 1070.0078125 275.81556795716585 L 1075.2812500000002 275.4850993226032 L 1080.5546875000002 275.6824555739462 L 1085.828125 276.4106246816149 L 1091.1015625000002 277.6808293778373 L 1096.375 279.51342034240906 L 1101.6484375000002 281.9396052605015 L 1106.921875 285.0043818220264 L 1112.1953125000002 288.7713910234138 L 1117.46875 293.3311100345404 L 1122.7421875000002 298.8153782055464 L 1128.015625 305.4252098356848 L 1132.703125 312.5072277151679 L 1136.8046875 319.95571857247637 L 1140.3203125 327.6537555871192 L 1143.5429687500002 336.3325113912363 L 1146.1796875 345.3867725404854 L 1148.2304687500002 354.85208654508614 L 1149.40234375 362.50402900344966 L 1150.28125 371.92958584831706 L 1150.557310626687 380.9980546441154" stroke-linecap="round" stroke-linejoin="round" stroke-miterlimit="10" stroke-width="3.5" stroke-opacity="0.7" stroke-dasharray=""/></g></g><g id="sketch-c4249cd6"><title>Expression 7</title><path fill="#6042a6" stroke="none" paint-order="stroke fill markers" d="" fill-opacity="0.4"/><path fill="#6042a6" stroke="none" paint-order="stroke fill markers" d="" fill-opacity="0.4"/><g><path fill="none" stroke="#6042a6" class="dcg-svg-curve" paint-order="fill stroke markers" d=" M 909.108178348882 380.9980616401723 L 909.108178348882 380.9980616401723 L 909.4609375000001 396.333135432006 L 910.6328125 412.8227979289063 L 912.390625 427.5704595547133 L 914.7343750000001 441.75436242156115 L 917.6640625 455.5859551465244 L 921.1796875 469.11427014460395 L 925.2812499999999 482.33880308607485 L 929.9687500000001 495.23883270437494 L 934.9492187500001 507.13081964678736 L 940.515625 518.7909187747839 L 946.66796875 530.1423256424255 L 953.4062500000002 541.115624693582 L 960.4375000000001 551.2483811452039 L 968.0546875000001 560.9661428211599 L 976.2578124999999 570.1913292430256 L 984.7539062500001 578.5772772922965 L 992.95703125 585.6811963095773 L 1001.1601562500001 591.9095590624873 L 1009.3632812499999 597.3379997878039 L 1017.5664062500001 602.0254646835883 L 1025.76953125 606.018264999379 L 1033.6796875 609.2447426871582 L 1041.5898437500002 611.8848750665791 L 1049.5000000000002 613.9585980737083 L 1057.41015625 615.4809398476687 L 1065.3203125 616.4625951167558 L 1073.23046875 616.9103135347679 L 1081.140625 616.8271361376873 L 1089.05078125 616.2124997141873 L 1096.9609375 615.0622175768855 L 1104.8710937500002 613.3683351823759 L 1112.7812500000002 611.1188487796392 L 1120.69140625 608.2972632166353 L 1128.6015625000002 604.881949218184 L 1136.51171875 600.8452379083711 L 1144.421875 596.1521562460796 L 1152.33203125 590.7586529224301 L 1160.2421875 584.6090746076311 L 1168.15234375 577.6324972454103 L 1176.0625 569.7372352320012 L 1183.9726562500002 560.802310058845 L 1191.5898437500002 551.0629611114759 L 1198.62109375 540.9064537869701 L 1199.5 539.5473198814295" stroke-linecap="round" stroke-linejoin="round" stroke-miterlimit="10" stroke-width="3.5" stroke-opacity="0.7" stroke-dasharray=""/></g><g><path fill="none" stroke="#6042a6" class="dcg-svg-curve" paint-order="fill stroke markers" d=" M 909.108178348882 380.9980553508607 L 909.108178348882 380.9980553508607 L 909.4609375000001 365.662981559027 L 910.6328125 349.17331906212667 L 912.390625 334.42565743631974 L 914.7343750000001 320.2417545694718 L 917.6640625 306.4101618445086 L 921.1796875 292.881846846429 L 925.2812499999999 279.6573139049581 L 929.9687500000001 266.757284286658 L 934.9492187500001 254.86529734424562 L 940.515625 243.20519821624896 L 946.66796875 231.8537913486075 L 953.4062500000002 220.88049229745104 L 960.4375000000001 210.74773584582908 L 968.0546875000001 201.02997416987307 L 976.2578124999999 191.80478774800747 L 984.7539062500001 183.41883969873663 L 992.95703125 176.31492068145553 L 1001.1601562500001 170.08655792854563 L 1009.3632812499999 164.65811720322904 L 1017.5664062500001 159.97065230744477 L 1025.76953125 155.977851991654 L 1033.6796875 152.75137430387474 L 1041.5898437500002 150.1112419244539 L 1049.5000000000002 148.03751891732452 L 1057.41015625 146.51517714336433 L 1065.3203125 145.53352187427708 L 1073.23046875 145.08580345626513 L 1081.140625 145.16898085334572 L 1089.05078125 145.7836172768458 L 1096.9609375 146.9338994141475 L 1104.8710937500002 148.62778180865712 L 1112.7812500000002 150.8772682113938 L 1120.69140625 153.69885377439766 L 1128.6015625000002 157.1141677728491 L 1136.51171875 161.15087908266173 L 1144.421875 165.8439607449534 L 1152.33203125 171.237464068603 L 1160.2421875 177.38704238340188 L 1168.15234375 184.3636197456227 L 1176.0625 192.25888175903174 L 1183.9726562500002 201.19380693218807 L 1191.5898437500002 210.93315587955703 L 1198.62109375 221.08966320406284 L 1199.5 222.44879710960356" stroke-linecap="round" stroke-linejoin="round" stroke-miterlimit="10" stroke-width="3.5" stroke-opacity="0.7" stroke-dasharray=""/></g></g><g id="sketch-c4249cd6"><title>Expression 8</title><path fill="#6042a6" stroke="none" paint-order="stroke fill markers" d="" fill-opacity="0.4"/><path fill="#6042a6" stroke="none" paint-order="stroke fill markers" d="" fill-opacity="0.4"/><g><path fill="none" stroke="#6042a6" class="dcg-svg-curve" paint-order="fill stroke markers" d=" M 840.0019278799372 380.99806478482816 L 840.0019278799372 380.99806478482816 L 840.3203125 398.32665872233406 L 841.4921875 418.4417030946132 L 843.25 436.1736512953246 L 845.59375 453.2121798743746 L 848.5234375 469.8639511979853 L 852.0390625 486.21473660994195 L 856.140625 502.28436230234735 L 860.8281249999999 518.066516528513 L 865.80859375 532.7336575486704 L 871.3750000000001 547.2525325912031 L 877.52734375 561.5505378582754 L 884.2656250000001 575.5652096147276 L 891.5898437500001 589.2400021298705 L 899.2070312500001 602.0540426454597 L 907.4101562500001 614.5154971794433 L 916.1992187500001 626.5606105855325 L 925.2812499999999 637.7845078496814 L 934.9492187500001 648.5402187121707 L 944.9101562499999 658.4835257786979 L 954.87109375 667.390587221078 L 964.83203125 675.3554864003718 L 974.5 682.2559536876333 L 984.16796875 688.3943255343388 L 993.8359375000002 693.8154686315534 L 1003.50390625 698.556117281667 L 1013.1718750000001 702.646361517365 L 1022.8398437500001 706.110750488059 L 1032.21484375 708.8912431751523 L 1041.5898437500002 711.116304165261 L 1050.96484375 712.7971079046216 L 1060.33984375 713.941897233376 L 1069.71484375 714.5561910874499 L 1079.0898437500002 714.6429196621975 L 1088.4648437500002 714.2024949120351 L 1097.83984375 713.232820391929 L 1107.21484375 711.7292409943578 L 1116.5898437500002 709.6844297398958 L 1125.96484375 707.0882050907701 L 1135.33984375 703.9272678761948 L 1144.71484375 700.1848413295586 L 1154.0898437500002 695.840190207049 L 1163.46484375 690.8679843763255 L 1172.83984375 685.2374568812187 L 1182.5078125000002 678.7019104338025 L 1192.17578125 671.3765647742837 L 1199.5 665.2641351627278" stroke-linecap="round" stroke-linejoin="round" stroke-miterlimit="10" stroke-width="3.5" stroke-opacity="0.7" stroke-dasharray=""/></g><g><path fill="none" stroke="#6042a6" class="dcg-svg-curve" paint-order="fill stroke markers" d=" M 840.0019278799372 380.9980522062049 L 840.0019278799372 380.9980522062049 L 840.3203125 363.669458268699 L 841.4921875 343.55441389641976 L 843.25 325.82246569570844 L 845.59375 308.78393711665836 L 848.5234375 292.1321657930477 L 852.0390625 275.781380381091 L 856.140625 259.7117546886856 L 860.8281249999999 243.92960046251994 L 865.80859375 229.26245944236257 L 871.3750000000001 214.74358439982984 L 877.52734375 200.44557913275753 L 884.2656250000001 186.4309073763054 L 891.5898437500001 172.75611486116247 L 899.2070312500001 159.94207434557336 L 907.4101562500001 147.48061981158958 L 916.1992187500001 135.43550640550052 L 925.2812499999999 124.21160914135157 L 934.9492187500001 113.45589827886226 L 944.9101562499999 103.512591212335 L 954.87109375 94.60552976995496 L 964.83203125 86.6406305906612 L 974.5 79.74016330339975 L 984.16796875 73.60179145669429 L 993.8359375000002 68.18064835947962 L 1003.50390625 63.43999970936602 L 1013.1718750000001 59.34975547366787 L 1022.8398437500001 55.885366502973966 L 1032.21484375 53.10487381588064 L 1041.5898437500002 50.87981282577198 L 1050.96484375 49.199009086411365 L 1060.33984375 48.054219757656824 L 1069.71484375 47.43992590358312 L 1079.0898437500002 47.353197328835336 L 1088.4648437500002 47.79362207899783 L 1097.83984375 48.76329659910391 L 1107.21484375 50.266875996675026 L 1116.5898437500002 52.31168725113719 L 1125.96484375 54.90791190026289 L 1135.33984375 58.068849114838144 L 1144.71484375 61.81127566147427 L 1154.0898437500002 66.15592678398389 L 1163.46484375 71.12813261470751 L 1172.83984375 76.75866010981417 L 1182.5078125000002 83.2942065572305 L 1192.17578125 90.6195522167493 L 1199.5 96.73198182830515" stroke-linecap="round" stroke-linejoin="round" stroke-miterlimit="10" stroke-width="3.5" stroke-opacity="0.7" stroke-dasharray=""/></g></g><g id="sketch-c4249cd6"><title>Expression 9</title><path fill="#6042a6" stroke="none" paint-order="stroke fill markers" d="" fill-opacity="0.4"/><path fill="#6042a6" stroke="none" paint-order="stroke fill markers" d="" fill-opacity="0.4"/><g><path fill="none" stroke="#6042a6" class="dcg-svg-curve" paint-order="fill stroke markers" d=" M 786.9748368570821 380.9980584955165 L 786.9748368570821 380.9980584955165 L 787.29296875 400.1688859585371 L 788.4648437500001 422.44480064116266 L 790.22265625 442.0963437838667 L 792.5664062500001 461.0022152534195 L 795.49609375 479.5087017905415 L 799.0117187500001 497.71757842047145 L 803.1132812500001 515.657793856903 L 807.80078125 533.3296104449784 L 813.07421875 550.7197704899927 L 818.640625 566.9993527853927 L 824.7929687500001 583.1190349786142 L 831.5312500000001 599.0150849550554 L 838.85546875 614.631761143069 L 846.7656250000001 629.9182068986382 L 854.9687499999999 644.3355225309473 L 863.7578125000001 658.4162193511978 L 873.1328125 672.1030055663963 L 882.8007812500001 684.968937013607 L 893.0546875000001 697.399635764996 L 903.8945312500001 709.3347481381504 L 914.7343750000001 720.1587823157349 L 925.57421875 729.9751387585735 L 936.4140625 738.8667490308916 L 947.2539062500001 746.9010346134792 L 958.09375 754.1333789201085 L 968.9335937500001 760.6096203777199 L 979.48046875 766.2214046481675 L 990.02734375 771.1828463055771 L 1000.57421875 775.5184820057021 L 1011.12109375 779.2487511576486 L 1021.66796875 782.3905317134597 L 1032.21484375 784.9575547536241 L 1042.76171875 786.9607235142696 L 1053.015625 788.3755869301793 L 1063.26953125 789.2708173031616 L 1073.5234375 789.6498297161261 L 1083.7773437500002 789.514060979559 L 1094.0312500000002 788.8629970178265 L 1104.28515625 787.6941630902595 L 1114.5390625 786.0030764097805 L 1124.79296875 783.7831590210865 L 1135.046875 781.0256069237696 L 1145.3007812500002 777.7192092098542 L 1155.8476562500002 773.7311347799711 L 1166.39453125 769.1293773845387 L 1176.94140625 763.8918112627166 L 1187.48828125 757.9919375236849 L 1198.03515625 751.3981090519363 L 1199.5 750.4253671795378" stroke-linecap="round" stroke-linejoin="round" stroke-miterlimit="10" stroke-width="3.5" stroke-opacity="0.7" stroke-dasharray=""/></g><g><path fill="none" stroke="#6042a6" class="dcg-svg-curve" paint-order="fill stroke markers" d=" M 786.9748368570821 380.9980584955165 L 786.9748368570821 380.9980584955165 L 787.29296875 361.8272310324959 L 788.4648437500001 339.5513163498704 L 790.22265625 319.8997732071663 L 792.5664062500001 300.99390173761356 L 795.49609375 282.48741520049145 L 799.0117187500001 264.2785385705615 L 803.1132812500001 246.33832313412995 L 807.80078125 228.66650654605462 L 813.07421875 211.2763465010404 L 818.640625 194.99676420564015 L 824.7929687500001 178.87708201241878 L 831.5312500000001 162.9810320359776 L 838.85546875 147.36435584796402 L 846.7656250000001 132.07791009239486 L 854.9687499999999 117.66059446008569 L 863.7578125000001 103.57989763983528 L 873.1328125 89.89311142463669 L 882.8007812500001 77.02717997742593 L 893.0546875000001 64.5964812260371 L 903.8945312500001 52.66136885288256 L 914.7343750000001 41.83733467529805 L 925.57421875 32.020978232459356 L 936.4140625 23.12936796014128 L 947.2539062500001 15.095082377553808 L 958.09375 7.862738070924479 L 968.9335937500001 1.3864966133130565 L 977.1776439912339 -3 L 1174.717668313822 -3 L 1176.94140625 -1.8956942716837375 L 1187.48828125 4.004179467348081 L 1198.03515625 10.598007939096647 L 1199.5 11.570749811495034" stroke-linecap="round" stroke-linejoin="round" stroke-miterlimit="10" stroke-width="3.5" stroke-opacity="0.7" stroke-dasharray=""/></g></g><g id="sketch-c4249cd6"><title>Expression 10</title><path fill="#6042a6" stroke="none" paint-order="stroke fill markers" d="" fill-opacity="0.4"/><path fill="#6042a6" stroke="none" paint-order="stroke fill markers" d="" fill-opacity="0.4"/><g><path fill="none" stroke="#6042a6" class="dcg-svg-curve" paint-order="fill stroke markers" d=" M 742.2709312220034 380.99806478482816 L 742.2709312220034 380.99806478482816 L 742.7617187500001 406.5826510458417 L 743.9335937500001 428.0472180970645 L 745.69140625 448.3916917368199 L 748.0351562500001 468.33102422770645 L 750.9648437500001 488.0147825781286 L 754.4804687500001 507.48086138037957 L 758.58203125 526.7316793316512 L 763.26953125 545.7551723669465 L 768.54296875 564.5322390421798 L 774.40234375 583.0398263497498 L 780.5546875000001 600.465504981943 L 787.29296875 617.7191067429574 L 794.6171875 634.7423811234503 L 802.52734375 651.4836244723574 L 810.73046875 667.353414109668 L 819.5195312500001 682.9398703931724 L 828.89453125 698.1873514350882 L 838.85546875 713.0432979894073 L 849.109375 727.0734095971483 L 859.94921875 740.6765449124363 L 871.3750000000001 753.7972246323709 L 883.09375 766.0873971734201 L 894.8125000000001 777.3048372013398 L 906.5312500000001 787.5383523493209 L 918.25 796.8605860199846 L 926.7432259039316 803" stroke-linecap="round" stroke-linejoin="round" stroke-miterlimit="10" stroke-width="3.5" stroke-opacity="0.7" stroke-dasharray=""/></g><g><path fill="none" stroke="#6042a6" class="dcg-svg-curve" paint-order="fill stroke markers" d=" M 742.2709312220034 380.9980522062049 L 742.2709312220034 380.9980522062049 L 742.7617187500001 355.41346594519126 L 743.9335937500001 333.9488988939685 L 745.69140625 313.6044252542131 L 748.0351562500001 293.6650927633266 L 750.9648437500001 273.9813344129044 L 754.4804687500001 254.5152556106534 L 758.58203125 235.26443765938177 L 763.26953125 216.24094462408664 L 768.54296875 197.46387794885334 L 774.40234375 178.9562906412831 L 780.5546875000001 161.53061200908996 L 787.29296875 144.2770102480756 L 794.6171875 127.25373586758269 L 802.52734375 110.51249251867569 L 810.73046875 94.64270288136504 L 819.5195312500001 79.05624659786054 L 828.89453125 63.808765555944774 L 838.85546875 48.9528190016257 L 849.109375 34.92270739388471 L 859.94921875 21.319572078596707 L 871.3750000000001 8.198892358662192 L 882.0532080877823 -3" stroke-linecap="round" stroke-linejoin="round" stroke-miterlimit="10" stroke-width="3.5" stroke-opacity="0.7" stroke-dasharray=""/></g></g><g id="sketch-c4249cd6"><title>Expression 11</title><path fill="#6042a6" stroke="none" paint-order="stroke fill markers" d="" fill-opacity="0.4"/><path fill="#6042a6" stroke="none" paint-order="stroke fill markers" d="" fill-opacity="0.4"/><g><path fill="none" stroke="#6042a6" class="dcg-svg-curve" paint-order="fill stroke markers" d=" M 702.8859997211285 380.99806478482816 L 702.8859997211285 380.99806478482816 L 703.2109375 403.01335398857947 L 704.3828125 428.2116112743744 L 706.140625 450.5357416530501 L 708.484375 472.0553100203283 L 711.4140625 493.1606240101315 L 714.9296875 513.9715301219491 L 719.03125 534.5272510865925 L 723.7187500000001 554.8353630516392 L 728.9921875000001 574.8886761257211 L 734.8515625000001 594.6721644824091 L 741.0039062500001 613.3233211903655 L 747.7421875000001 631.8205843045121 L 755.06640625 650.1076650319233 L 762.9765625 668.135050024074 L 771.47265625 685.8575931811569 L 780.2617187500001 702.6950610345215 L 789.6367187500001 719.2306991362395 L 799.59765625 735.413762403573 L 809.8515625000001 750.7747241492946 L 820.69140625 765.7543990890689 L 832.1171875 780.3002636234413 L 844.1289062500002 794.360941585976 L 852.1678086754949 803" stroke-linecap="round" stroke-linejoin="round" stroke-miterlimit="10" stroke-width="3.5" stroke-opacity="0.7" stroke-dasharray=""/></g><g><path fill="none" stroke="#6042a6" class="dcg-svg-curve" paint-order="fill stroke markers" d=" M 702.8859997211285 380.9980522062049 L 702.8859997211285 380.9980522062049 L 703.2109375 358.9827630024535 L 704.3828125 333.7845057166586 L 706.140625 311.46037533798284 L 708.484375 289.9408069707047 L 711.4140625 268.83549298090145 L 714.9296875 248.02458686908392 L 719.03125 227.46886590444046 L 723.7187500000001 207.16075393939377 L 728.9921875000001 187.1074408653119 L 734.8515625000001 167.32395250862385 L 741.0039062500001 148.67279580066736 L 747.7421875000001 130.1755326865209 L 755.06640625 111.88845195910972 L 762.9765625 93.86106696695913 L 771.47265625 76.13852380987612 L 780.2617187500001 59.301055956511505 L 789.6367187500001 42.76541785479333 L 799.59765625 26.582354587459918 L 809.8515625000001 11.221392841738293 L 820.1426854336819 -3" stroke-linecap="round" stroke-linejoin="round" stroke-miterlimit="10" stroke-width="3.5" stroke-opacity="0.7" stroke-dasharray=""/></g></g><g id="sketch-c4249cd6"><title>Expression 12</title><path fill="#6042a6" stroke="none" paint-order="stroke fill markers" d="" fill-opacity="0.4"/><path fill="#6042a6" stroke="none" paint-order="stroke fill markers" d="" fill-opacity="0.4"/><g><path fill="none" stroke="#6042a6" class="dcg-svg-curve" paint-order="fill stroke markers" d=" M 667.2792999242893 380.99806478482816 L 667.2792999242893 380.99806478482816 L 667.76171875 409.0716666308904 L 668.9335937500001 432.9474763650586 L 670.69140625 455.52566512041625 L 673.03515625 477.65536164097074 L 675.96484375 499.5184062470581 L 679.4804687500001 521.1661023692316 L 683.58203125 542.6085101679957 L 688.26953125 563.8389905075138 L 693.54296875 584.8429174611222 L 699.40234375 605.6013077049533 L 705.8476562500001 626.0925030974564 L 712.5859375000001 645.4895883078873 L 719.9101562500001 664.7123134796154 L 727.8203125 683.7088375862681 L 736.31640625 702.4327531785857 L 745.3984375000001 720.841230895385 L 754.7734375 738.3677726934292 L 764.734375 755.579649701023 L 775.28125 772.4289100101411 L 786.1210937500001 788.4532312764429 L 796.7522542985762 803" stroke-linecap="round" stroke-linejoin="round" stroke-miterlimit="10" stroke-width="3.5" stroke-opacity="0.7" stroke-dasharray=""/></g><g><path fill="none" stroke="#6042a6" class="dcg-svg-curve" paint-order="fill stroke markers" d=" M 667.2792999242893 380.9980522062049 L 667.2792999242893 380.9980522062049 L 667.76171875 352.9244503601426 L 668.9335937500001 329.04864062597443 L 670.69140625 306.4704518706168 L 673.03515625 284.3407553500622 L 675.96484375 262.47771074397485 L 679.4804687500001 240.83001462180152 L 683.58203125 219.38760682303712 L 688.26953125 198.15712648351916 L 693.54296875 177.15319952991092 L 699.40234375 156.39480928607975 L 705.8476562500001 135.90361389357668 L 712.5859375000001 116.50652868314558 L 719.9101562500001 97.28380351141755 L 727.8203125 78.28727940476483 L 736.31640625 59.56336381244739 L 745.3984375000001 41.15488609564795 L 754.7734375 23.628344297603803 L 764.734375 6.416467290010019 L 770.6286576941536 -3" stroke-linecap="round" stroke-linejoin="round" stroke-miterlimit="10" stroke-width="3.5" stroke-opacity="0.7" stroke-dasharray=""/></g></g><g id="sketch-c4249cd6"><title>Expression 13</title><path fill="#6042a6" stroke="none" paint-order="stroke fill markers" d="" fill-opacity="0.4"/><path fill="#6042a6" stroke="none" paint-order="stroke fill markers" d="" fill-opacity="0.4"/><g><path fill="none" stroke="#6042a6" class="dcg-svg-curve" paint-order="fill stroke markers" d=" M 634.5355601554144 380.9980584955165 L 634.5355601554144 380.9980584955165 L 634.94921875 408.01712049316535 L 636.12109375 433.86064307316053 L 637.87890625 457.68435369293064 L 640.22265625 480.8813662136807 L 643.15234375 503.7402078366884 L 646.6679687500001 526.3495933975531 L 650.76953125 548.73671338133 L 655.4570312500001 570.9042433530274 L 660.7304687500001 592.8433270919661 L 666.58984375 614.5389624592133 L 673.03515625 635.9725048800562 L 679.7734375000001 656.2812768196999 L 687.0976562500001 676.4302218436388 L 695.0078125 696.3683304694481 L 703.50390625 716.0502453528285 L 712.5859375000001 735.434376330242 L 721.9609375 753.9260715882976 L 731.9218750000001 772.1258276967787 L 742.4687500000001 789.9869975042883 L 750.7493469455607 803" stroke-linecap="round" stroke-linejoin="round" stroke-miterlimit="10" stroke-width="3.5" stroke-opacity="0.7" stroke-dasharray=""/></g><g><path fill="none" stroke="#6042a6" class="dcg-svg-curve" paint-order="fill stroke markers" d=" M 634.5355601554144 380.9980584955165 L 634.5355601554144 380.9980584955165 L 634.94921875 353.97899649786757 L 636.12109375 328.1354739178725 L 637.87890625 304.31176329810233 L 640.22265625 281.11475077735236 L 643.15234375 258.25590915434464 L 646.6679687500001 235.64652359347986 L 650.76953125 213.2594036097031 L 655.4570312500001 191.09187363800572 L 660.7304687500001 169.15278989906687 L 666.58984375 147.4571545318197 L 673.03515625 126.02361211097673 L 679.7734375000001 105.7148401713331 L 687.0976562500001 85.56589514739414 L 695.0078125 65.62778652158488 L 703.50390625 45.945871638204494 L 712.5859375000001 26.561740660791088 L 721.9609375 8.070045402735332 L 728.0197016791213 -3" stroke-linecap="round" stroke-linejoin="round" stroke-miterlimit="10" stroke-width="3.5" stroke-opacity="0.7" stroke-dasharray=""/></g></g><g id="sketch-c4249cd6"><title>Expression 14</title><path fill="#6042a6" stroke="none" paint-order="stroke fill markers" d="" fill-opacity="0.4"/><path fill="#6042a6" stroke="none" paint-order="stroke fill markers" d="" fill-opacity="0.4"/><g><path fill="none" stroke="#6042a6" class="dcg-svg-curve" paint-order="fill stroke markers" d=" M 604.0584302841138 380.9980710741398 L 604.0584302841138 380.9980710741398 L 604.4804687500001 409.2161665319558 L 605.65234375 435.8023194957046 L 607.41015625 460.3962665678074 L 609.7539062500001 484.36926950688724 L 612.68359375 508.0083848244764 L 616.19921875 531.4025905567249 L 620.3007812500001 554.579707406808 L 624.98828125 577.5431693619428 L 630.26171875 600.284947251719 L 636.12109375 622.7909179971546 L 642.56640625 645.043364933329 L 649.3046875 666.1472016837776 L 656.62890625 687.105859557148 L 664.5390625000001 707.8684937877224 L 673.03515625 728.3902034367239 L 682.1171875 748.6300897547881 L 691.4921875000001 767.9684554019324 L 701.453125 787.0346408754148 L 710.4344928832364 803" stroke-linecap="round" stroke-linejoin="round" stroke-miterlimit="10" stroke-width="3.5" stroke-opacity="0.7" stroke-dasharray=""/></g><g><path fill="none" stroke="#6042a6" class="dcg-svg-curve" paint-order="fill stroke markers" d=" M 604.0584302841138 380.9980459168932 L 604.0584302841138 380.9980459168932 L 604.4804687500001 352.7799504590772 L 605.65234375 326.19379749532845 L 607.41015625 301.59985042322563 L 609.7539062500001 277.62684748414574 L 612.68359375 253.9877321665566 L 616.19921875 230.59352643430805 L 620.3007812500001 207.416409584225 L 624.98828125 184.4529476290901 L 630.26171875 161.71116973931396 L 636.12109375 139.2051989938784 L 642.56640625 116.95275205770406 L 649.3046875 95.84891530725542 L 656.62890625 74.89025743388493 L 664.5390625000001 54.12762320331058 L 673.03515625 33.605913554309154 L 682.1171875 13.366027236244918 L 690.0512346754115 -3" stroke-linecap="round" stroke-linejoin="round" stroke-miterlimit="10" stroke-width="3.5" stroke-opacity="0.7" stroke-dasharray=""/></g></g><g id="sketch-c4249cd6"><title>Expression 15</title><path fill="none" stroke="#2d70b3" class="dcg-svg-point" paint-order="fill stroke markers" d=" M 618.6044859322171 416.07043846040443 L 618.6044859322171 416.2704384604045 L 618.8044859322172 416.2704384604045 L 618.8044859322172 416.07043846040443" stroke-linecap="round" stroke-linejoin="round" stroke-miterlimit="10" stroke-width="10.5" stroke-opacity="0.9" stroke-dasharray=""/></g><g id="sketch-c4249cd6"><title>Expression 16</title><path fill="none" stroke="#2d70b3" class="dcg-svg-point" paint-order="fill stroke markers" d=" M 548.2597260024412 486.4151983901803 L 548.2597260024412 486.61519839018035 L 548.4597260024412 486.61519839018035 L 548.4597260024412 486.4151983901803" stroke-linecap="round" stroke-linejoin="round" stroke-miterlimit="10" stroke-width="10.5" stroke-opacity="0.9" stroke-dasharray=""/></g><g id="sketch-c4249cd6"><title>Expression 17</title><path fill="none" stroke="#2d70b3" class="dcg-svg-point" paint-order="fill stroke markers" d=" M 337.2254462131135 275.3809186008526 L 337.2254462131135 275.58091860085267 L 337.42544621311356 275.58091860085267 L 337.42544621311356 275.3809186008526" stroke-linecap="round" stroke-linejoin="round" stroke-miterlimit="10" stroke-width="10.5" stroke-opacity="0.9" stroke-dasharray=""/></g></g><g id="labels-c4249cd6"><g class="dcg-svg-label"><g transform="translate(633.701416015625,405.1666564941406)"><g><path fill="none" stroke="#FFF" paint-order="fill stroke markers" d=" M 8.127022400643062 0 L 8.12702240064306 -1.7763568394002505e-15 A 6.045711785844229 10.82250585863667 0 0 0 8.12702240064306 19.93055534362793 L 7.135922107881713 19.93055534362793 L 7.135922107881711 19.93055534362793 A 7.433252195710118 10.82250585863667 0 0 1 7.135922107881711 -1.7763568394002505e-15 Z" stroke-linecap="round" stroke-linejoin="round" stroke-miterlimit="10" stroke-width="3" stroke-dasharray=""/></g></g><g transform="translate(644.076416015625,406.5763854980469)"><g><text fill="none" stroke="#FFF" font-family="Symbola, &quot;Times New Roman&quot;, serif" font-size="18.5725px" font-style="normal" font-weight="normal" text-decoration="normal" x="0" y="14.43215701171875" text-anchor="start" stroke-linecap="round" stroke-linejoin="round" stroke-miterlimit="2" stroke-width="3" stroke-dasharray="">0</text></g></g><g transform="translate(653.8680419921875,406.5763854980469)"><g><text fill="none" stroke="#FFF" font-family="Symbola, &quot;Times New Roman&quot;, serif" font-size="18.5725px" font-style="normal" font-weight="normal" text-decoration="normal" x="0" y="14.43215701171875" text-anchor="start" stroke-linecap="round" stroke-linejoin="round" stroke-miterlimit="2" stroke-width="3" stroke-dasharray="">.</text></g></g><g transform="translate(658.8472290039062,406.5763854980469)"><g><text fill="none" stroke="#FFF" font-family="Symbola, &quot;Times New Roman&quot;, serif" font-size="18.5725px" font-style="normal" font-weight="normal" text-decoration="normal" x="0" y="14.43215701171875" text-anchor="start" stroke-linecap="round" stroke-linejoin="round" stroke-miterlimit="2" stroke-width="3" stroke-dasharray="">6</text></g></g><g transform="translate(668.638916015625,406.5763854980469)"><g><text fill="none" stroke="#FFF" font-family="Symbola, &quot;Times New Roman&quot;, serif" font-size="18.5725px" font-style="normal" font-weight="normal" text-decoration="normal" x="0" y="14.43215701171875" text-anchor="start" stroke-linecap="round" stroke-linejoin="round" stroke-miterlimit="2" stroke-width="3" stroke-dasharray="">6</text></g></g><g transform="translate(678.4305419921875,406.5763854980469)"><g><text fill="none" stroke="#FFF" font-family="Symbola, &quot;Times New Roman&quot;, serif" font-size="18.5725px" font-style="normal" font-weight="normal" text-decoration="normal" x="0" y="14.43215701171875" text-anchor="start" stroke-linecap="round" stroke-linejoin="round" stroke-miterlimit="2" stroke-width="3" stroke-dasharray="">7</text></g></g><g transform="translate(688.0555419921875,406.5763854980469)"><g><text fill="none" stroke="#FFF" font-family="Symbola, &quot;Times New Roman&quot;, serif" font-size="18.5725px" font-style="normal" font-weight="normal" text-decoration="normal" x="0" y="14.43215701171875" text-anchor="start" stroke-linecap="round" stroke-linejoin="round" stroke-miterlimit="2" stroke-width="3" stroke-dasharray="">,</text></g></g><g transform="translate(692.701416015625,406.5763854980469)"><g><text fill="none" stroke="#FFF" font-family="Symbola, &quot;Times New Roman&quot;, serif" font-size="18.5725px" font-style="normal" font-weight="normal" text-decoration="normal" x="0" y="14.43215701171875" text-anchor="start" stroke-linecap="round" stroke-linejoin="round" stroke-miterlimit="2" stroke-width="3" stroke-dasharray=""></text></g></g><g transform="translate(697.513916015625,406.5763854980469)"><g><text fill="none" stroke="#FFF" font-family="Symbola, &quot;Times New Roman&quot;, serif" font-size="18.5725px" font-style="normal" font-weight="normal" text-decoration="normal" x="0" y="14.43215701171875" text-anchor="start" stroke-linecap="round" stroke-linejoin="round" stroke-miterlimit="2" stroke-width="3" stroke-dasharray="">0</text></g></g><g transform="translate(707.3055419921875,406.5763854980469)"><g><text fill="none" stroke="#FFF" font-family="Symbola, &quot;Times New Roman&quot;, serif" font-size="18.5725px" font-style="normal" font-weight="normal" text-decoration="normal" x="0" y="14.43215701171875" text-anchor="start" stroke-linecap="round" stroke-linejoin="round" stroke-miterlimit="2" stroke-width="3" stroke-dasharray="">.</text></g></g><g transform="translate(712.2847290039062,406.5763854980469)"><g><text fill="none" stroke="#FFF" font-family="Symbola, &quot;Times New Roman&quot;, serif" font-size="18.5725px" font-style="normal" font-weight="normal" text-decoration="normal" x="0" y="14.43215701171875" text-anchor="start" stroke-linecap="round" stroke-linejoin="round" stroke-miterlimit="2" stroke-width="3" stroke-dasharray="">6</text></g></g><g transform="translate(722.076416015625,406.5763854980469)"><g><text fill="none" stroke="#FFF" font-family="Symbola, &quot;Times New Roman&quot;, serif" font-size="18.5725px" font-style="normal" font-weight="normal" text-decoration="normal" x="0" y="14.43215701171875" text-anchor="start" stroke-linecap="round" stroke-linejoin="round" stroke-miterlimit="2" stroke-width="3" stroke-dasharray="">6</text></g></g><g transform="translate(731.8680419921875,406.5763854980469)"><g><text fill="none" stroke="#FFF" font-family="Symbola, &quot;Times New Roman&quot;, serif" font-size="18.5725px" font-style="normal" font-weight="normal" text-decoration="normal" x="0" y="14.43215701171875" text-anchor="start" stroke-linecap="round" stroke-linejoin="round" stroke-miterlimit="2" stroke-width="3" stroke-dasharray="">7</text></g></g><g transform="translate(741.4930419921875,405.1666564941406)"><g><path fill="none" stroke="#FFF" paint-order="fill stroke markers" d=" M 2.081310614798833 0 L 2.0813106147988334 0 A 6.045711785844229 10.82250585863667 0 0 1 2.0813106147988334 19.93055534362793 L 3.0724109075601818 19.93055534362793 L 3.0724109075601818 19.93055534362793 A 7.433252195710118 10.82250585863667 0 0 0 3.0724109075601818 -1.7763568394002505e-15 Z" stroke-linecap="round" stroke-linejoin="round" stroke-miterlimit="10" stroke-width="3" stroke-dasharray=""/></g></g><g transform="translate(633.701416015625,405.1666564941406)"><g><path fill="rgb(108, 155, 202)" stroke="none" paint-order="stroke fill markers" d=" M 8.127022400643062 0 L 8.12702240064306 -1.7763568394002505e-15 A 6.045711785844229 10.82250585863667 0 0 0 8.12702240064306 19.93055534362793 L 7.135922107881713 19.93055534362793 L 7.135922107881711 19.93055534362793 A 7.433252195710118 10.82250585863667 0 0 1 7.135922107881711 -1.7763568394002505e-15 Z"/></g></g><g transform="translate(644.076416015625,406.5763854980469)"><g><text fill="rgb(108, 155, 202)" stroke="none" font-family="Symbola, &quot;Times New Roman&quot;, serif" font-size="18.5725px" font-style="normal" font-weight="normal" text-decoration="normal" x="0" y="14.43215701171875" text-anchor="start">0</text></g></g><g transform="translate(653.8680419921875,406.5763854980469)"><g><text fill="rgb(108, 155, 202)" stroke="none" font-family="Symbola, &quot;Times New Roman&quot;, serif" font-size="18.5725px" font-style="normal" font-weight="normal" text-decoration="normal" x="0" y="14.43215701171875" text-anchor="start">.</text></g></g><g transform="translate(658.8472290039062,406.5763854980469)"><g><text fill="rgb(108, 155, 202)" stroke="none" font-family="Symbola, &quot;Times New Roman&quot;, serif" font-size="18.5725px" font-style="normal" font-weight="normal" text-decoration="normal" x="0" y="14.43215701171875" text-anchor="start">6</text></g></g><g transform="translate(668.638916015625,406.5763854980469)"><g><text fill="rgb(108, 155, 202)" stroke="none" font-family="Symbola, &quot;Times New Roman&quot;, serif" font-size="18.5725px" font-style="normal" font-weight="normal" text-decoration="normal" x="0" y="14.43215701171875" text-anchor="start">6</text></g></g><g transform="translate(678.4305419921875,406.5763854980469)"><g><text fill="rgb(108, 155, 202)" stroke="none" font-family="Symbola, &quot;Times New Roman&quot;, serif" font-size="18.5725px" font-style="normal" font-weight="normal" text-decoration="normal" x="0" y="14.43215701171875" text-anchor="start">7</text></g></g><g transform="translate(688.0555419921875,406.5763854980469)"><g><text fill="rgb(108, 155, 202)" stroke="none" font-family="Symbola, &quot;Times New Roman&quot;, serif" font-size="18.5725px" font-style="normal" font-weight="normal" text-decoration="normal" x="0" y="14.43215701171875" text-anchor="start">,</text></g></g><g transform="translate(692.701416015625,406.5763854980469)"><g><text fill="rgb(108, 155, 202)" stroke="none" font-family="Symbola, &quot;Times New Roman&quot;, serif" font-size="18.5725px" font-style="normal" font-weight="normal" text-decoration="normal" x="0" y="14.43215701171875" text-anchor="start"></text></g></g><g transform="translate(697.513916015625,406.5763854980469)"><g><text fill="rgb(108, 155, 202)" stroke="none" font-family="Symbola, &quot;Times New Roman&quot;, serif" font-size="18.5725px" font-style="normal" font-weight="normal" text-decoration="normal" x="0" y="14.43215701171875" text-anchor="start">0</text></g></g><g transform="translate(707.3055419921875,406.5763854980469)"><g><text fill="rgb(108, 155, 202)" stroke="none" font-family="Symbola, &quot;Times New Roman&quot;, serif" font-size="18.5725px" font-style="normal" font-weight="normal" text-decoration="normal" x="0" y="14.43215701171875" text-anchor="start">.</text></g></g><g transform="translate(712.2847290039062,406.5763854980469)"><g><text fill="rgb(108, 155, 202)" stroke="none" font-family="Symbola, &quot;Times New Roman&quot;, serif" font-size="18.5725px" font-style="normal" font-weight="normal" text-decoration="normal" x="0" y="14.43215701171875" text-anchor="start">6</text></g></g><g transform="translate(722.076416015625,406.5763854980469)"><g><text fill="rgb(108, 155, 202)" stroke="none" font-family="Symbola, &quot;Times New Roman&quot;, serif" font-size="18.5725px" font-style="normal" font-weight="normal" text-decoration="normal" x="0" y="14.43215701171875" text-anchor="start">6</text></g></g><g transform="translate(731.8680419921875,406.5763854980469)"><g><text fill="rgb(108, 155, 202)" stroke="none" font-family="Symbola, &quot;Times New Roman&quot;, serif" font-size="18.5725px" font-style="normal" font-weight="normal" text-decoration="normal" x="0" y="14.43215701171875" text-anchor="start">7</text></g></g><g transform="translate(741.4930419921875,405.1666564941406)"><g><path fill="rgb(108, 155, 202)" stroke="none" paint-order="stroke fill markers" d=" M 2.081310614798833 0 L 2.0813106147988334 0 A 6.045711785844229 10.82250585863667 0 0 1 2.0813106147988334 19.93055534362793 L 3.0724109075601818 19.93055534362793 L 3.0724109075601818 19.93055534362793 A 7.433252195710118 10.82250585863667 0 0 0 3.0724109075601818 -1.7763568394002505e-15 Z"/></g></g></g><g class="dcg-svg-label"><g transform="translate(557.3541870117188,495.5138854980469)"><g><path fill="none" stroke="#FFF" paint-order="fill stroke markers" d=" M 8.127022400643062 0 L 8.12702240064306 -1.7763568394002505e-15 A 6.045711785844229 10.82250585863667 0 0 0 8.12702240064306 19.93055534362793 L 7.135922107881713 19.93055534362793 L 7.135922107881711 19.93055534362793 A 7.433252195710118 10.82250585863667 0 0 1 7.135922107881711 -1.7763568394002505e-15 Z" stroke-linecap="round" stroke-linejoin="round" stroke-miterlimit="10" stroke-width="3" stroke-dasharray=""/></g></g><g transform="translate(567.7291870117188,496.9236145019531)"><g><text fill="none" stroke="#FFF" font-family="Symbola, &quot;Times New Roman&quot;, serif" font-size="18.5725px" font-style="normal" font-weight="normal" text-decoration="normal" x="0" y="14.432126494140626" text-anchor="start" stroke-linecap="round" stroke-linejoin="round" stroke-miterlimit="2" stroke-width="3" stroke-dasharray="">0</text></g></g><g transform="translate(577.3541870117188,496.9236145019531)"><g><text fill="none" stroke="#FFF" font-family="Symbola, &quot;Times New Roman&quot;, serif" font-size="18.5725px" font-style="normal" font-weight="normal" text-decoration="normal" x="0" y="14.432126494140626" text-anchor="start" stroke-linecap="round" stroke-linejoin="round" stroke-miterlimit="2" stroke-width="3" stroke-dasharray="">,</text></g></g><g transform="translate(582,496.9236145019531)"><g><text fill="none" stroke="#FFF" font-family="Symbola, &quot;Times New Roman&quot;, serif" font-size="18.5725px" font-style="normal" font-weight="normal" text-decoration="normal" x="0" y="14.432126494140626" text-anchor="start" stroke-linecap="round" stroke-linejoin="round" stroke-miterlimit="2" stroke-width="3" stroke-dasharray=""></text></g></g><g transform="translate(586.8125,496.9236145019531)"><g><text fill="none" stroke="#FFF" font-family="Symbola, &quot;Times New Roman&quot;, serif" font-size="18.5725px" font-style="normal" font-weight="normal" text-decoration="normal" x="0" y="14.432126494140626" text-anchor="start" stroke-linecap="round" stroke-linejoin="round" stroke-miterlimit="2" stroke-width="3" stroke-dasharray="">0</text></g></g><g transform="translate(596.4375,495.5138854980469)"><g><path fill="none" stroke="#FFF" paint-order="fill stroke markers" d=" M 2.081310614798833 0 L 2.0813106147988334 0 A 6.045711785844229 10.82250585863667 0 0 1 2.0813106147988334 19.93055534362793 L 3.0724109075601818 19.93055534362793 L 3.0724109075601818 19.93055534362793 A 7.433252195710118 10.82250585863667 0 0 0 3.0724109075601818 -1.7763568394002505e-15 Z" stroke-linecap="round" stroke-linejoin="round" stroke-miterlimit="10" stroke-width="3" stroke-dasharray=""/></g></g><g transform="translate(557.3541870117188,495.5138854980469)"><g><path fill="rgb(108, 155, 202)" stroke="none" paint-order="stroke fill markers" d=" M 8.127022400643062 0 L 8.12702240064306 -1.7763568394002505e-15 A 6.045711785844229 10.82250585863667 0 0 0 8.12702240064306 19.93055534362793 L 7.135922107881713 19.93055534362793 L 7.135922107881711 19.93055534362793 A 7.433252195710118 10.82250585863667 0 0 1 7.135922107881711 -1.7763568394002505e-15 Z"/></g></g><g transform="translate(567.7291870117188,496.9236145019531)"><g><text fill="rgb(108, 155, 202)" stroke="none" font-family="Symbola, &quot;Times New Roman&quot;, serif" font-size="18.5725px" font-style="normal" font-weight="normal" text-decoration="normal" x="0" y="14.432126494140626" text-anchor="start">0</text></g></g><g transform="translate(577.3541870117188,496.9236145019531)"><g><text fill="rgb(108, 155, 202)" stroke="none" font-family="Symbola, &quot;Times New Roman&quot;, serif" font-size="18.5725px" font-style="normal" font-weight="normal" text-decoration="normal" x="0" y="14.432126494140626" text-anchor="start">,</text></g></g><g transform="translate(582,496.9236145019531)"><g><text fill="rgb(108, 155, 202)" stroke="none" font-family="Symbola, &quot;Times New Roman&quot;, serif" font-size="18.5725px" font-style="normal" font-weight="normal" text-decoration="normal" x="0" y="14.432126494140626" text-anchor="start"></text></g></g><g transform="translate(586.8125,496.9236145019531)"><g><text fill="rgb(108, 155, 202)" stroke="none" font-family="Symbola, &quot;Times New Roman&quot;, serif" font-size="18.5725px" font-style="normal" font-weight="normal" text-decoration="normal" x="0" y="14.432126494140626" text-anchor="start">0</text></g></g><g transform="translate(596.4375,495.5138854980469)"><g><path fill="rgb(108, 155, 202)" stroke="none" paint-order="stroke fill markers" d=" M 2.081310614798833 0 L 2.0813106147988334 0 A 6.045711785844229 10.82250585863667 0 0 1 2.0813106147988334 19.93055534362793 L 3.0724109075601818 19.93055534362793 L 3.0724109075601818 19.93055534362793 A 7.433252195710118 10.82250585863667 0 0 0 3.0724109075601818 -1.7763568394002505e-15 Z"/></g></g></g><g class="dcg-svg-label"><g transform="translate(258.3194580078125,264.4791564941406)"><g><path fill="none" stroke="#FFF" paint-order="fill stroke markers" d=" M 8.127022400643062 0 L 8.12702240064306 -1.7763568394002505e-15 A 6.045711785844229 10.82250585863667 0 0 0 8.12702240064306 19.93055534362793 L 7.135922107881713 19.93055534362793 L 7.135922107881711 19.93055534362793 A 7.433252195710118 10.82250585863667 0 0 1 7.135922107881711 -1.7763568394002505e-15 Z" stroke-linecap="round" stroke-linejoin="round" stroke-miterlimit="10" stroke-width="3" stroke-dasharray=""/></g></g><g transform="translate(268.52777099609375,265.8888854980469)"><g><text fill="none" stroke="#FFF" font-family="Symbola, &quot;Times New Roman&quot;, serif" font-size="18.5725px" font-style="normal" font-weight="normal" text-decoration="normal" x="0" y="14.43215701171875" text-anchor="start" stroke-linecap="round" stroke-linejoin="round" stroke-miterlimit="2" stroke-width="3" stroke-dasharray=""></text></g></g><g transform="translate(283.125,265.8888854980469)"><g><text fill="none" stroke="#FFF" font-family="Symbola, &quot;Times New Roman&quot;, serif" font-size="18.5725px" font-style="normal" font-weight="normal" text-decoration="normal" x="0" y="14.43215701171875" text-anchor="start" stroke-linecap="round" stroke-linejoin="round" stroke-miterlimit="2" stroke-width="3" stroke-dasharray="">2</text></g></g><g transform="translate(292.75,265.8888854980469)"><g><text fill="none" stroke="#FFF" font-family="Symbola, &quot;Times New Roman&quot;, serif" font-size="18.5725px" font-style="normal" font-weight="normal" text-decoration="normal" x="0" y="14.43215701171875" text-anchor="start" stroke-linecap="round" stroke-linejoin="round" stroke-miterlimit="2" stroke-width="3" stroke-dasharray="">,</text></g></g><g transform="translate(297.3958435058594,265.8888854980469)"><g><text fill="none" stroke="#FFF" font-family="Symbola, &quot;Times New Roman&quot;, serif" font-size="18.5725px" font-style="normal" font-weight="normal" text-decoration="normal" x="0" y="14.43215701171875" text-anchor="start" stroke-linecap="round" stroke-linejoin="round" stroke-miterlimit="2" stroke-width="3" stroke-dasharray=""></text></g></g><g transform="translate(302.2083435058594,265.8888854980469)"><g><text fill="none" stroke="#FFF" font-family="Symbola, &quot;Times New Roman&quot;, serif" font-size="18.5725px" font-style="normal" font-weight="normal" text-decoration="normal" x="0" y="14.43215701171875" text-anchor="start" stroke-linecap="round" stroke-linejoin="round" stroke-miterlimit="2" stroke-width="3" stroke-dasharray="">2</text></g></g><g transform="translate(311.8333435058594,264.4791564941406)"><g><path fill="none" stroke="#FFF" paint-order="fill stroke markers" d=" M 2.081310614798833 0 L 2.0813106147988334 0 A 6.045711785844229 10.82250585863667 0 0 1 2.0813106147988334 19.93055534362793 L 3.0724109075601818 19.93055534362793 L 3.0724109075601818 19.93055534362793 A 7.433252195710118 10.82250585863667 0 0 0 3.0724109075601818 -1.7763568394002505e-15 Z" stroke-linecap="round" stroke-linejoin="round" stroke-miterlimit="10" stroke-width="3" stroke-dasharray=""/></g></g><g transform="translate(258.3194580078125,264.4791564941406)"><g><path fill="rgb(108, 155, 202)" stroke="none" paint-order="stroke fill markers" d=" M 8.127022400643062 0 L 8.12702240064306 -1.7763568394002505e-15 A 6.045711785844229 10.82250585863667 0 0 0 8.12702240064306 19.93055534362793 L 7.135922107881713 19.93055534362793 L 7.135922107881711 19.93055534362793 A 7.433252195710118 10.82250585863667 0 0 1 7.135922107881711 -1.7763568394002505e-15 Z"/></g></g><g transform="translate(268.52777099609375,265.8888854980469)"><g><text fill="rgb(108, 155, 202)" stroke="none" font-family="Symbola, &quot;Times New Roman&quot;, serif" font-size="18.5725px" font-style="normal" font-weight="normal" text-decoration="normal" x="0" y="14.43215701171875" text-anchor="start"></text></g></g><g transform="translate(283.125,265.8888854980469)"><g><text fill="rgb(108, 155, 202)" stroke="none" font-family="Symbola, &quot;Times New Roman&quot;, serif" font-size="18.5725px" font-style="normal" font-weight="normal" text-decoration="normal" x="0" y="14.43215701171875" text-anchor="start">2</text></g></g><g transform="translate(292.75,265.8888854980469)"><g><text fill="rgb(108, 155, 202)" stroke="none" font-family="Symbola, &quot;Times New Roman&quot;, serif" font-size="18.5725px" font-style="normal" font-weight="normal" text-decoration="normal" x="0" y="14.43215701171875" text-anchor="start">,</text></g></g><g transform="translate(297.3958435058594,265.8888854980469)"><g><text fill="rgb(108, 155, 202)" stroke="none" font-family="Symbola, &quot;Times New Roman&quot;, serif" font-size="18.5725px" font-style="normal" font-weight="normal" text-decoration="normal" x="0" y="14.43215701171875" text-anchor="start"></text></g></g><g transform="translate(302.2083435058594,265.8888854980469)"><g><text fill="rgb(108, 155, 202)" stroke="none" font-family="Symbola, &quot;Times New Roman&quot;, serif" font-size="18.5725px" font-style="normal" font-weight="normal" text-decoration="normal" x="0" y="14.43215701171875" text-anchor="start">2</text></g></g><g transform="translate(311.8333435058594,264.4791564941406)"><g><path fill="rgb(108, 155, 202)" stroke="none" paint-order="stroke fill markers" d=" M 2.081310614798833 0 L 2.0813106147988334 0 A 6.045711785844229 10.82250585863667 0 0 1 2.0813106147988334 19.93055534362793 L 3.0724109075601818 19.93055534362793 L 3.0724109075601818 19.93055534362793 A 7.433252195710118 10.82250585863667 0 0 0 3.0724109075601818 -1.7763568394002505e-15 Z"/></g></g></g></g></g></svg>